<svg width="300" height="300" viewBox="0 0 300 300" fill="none" xmlns="http://www.w3.org/2000/svg">
<path d="M298.752 269.53C305.987 255.211 285.308 183.615 141.923 183.615C38.4274 183.615 -9.07413 242.217 1.42751 271.916" fill="url(#paint0_radial_1208_2467)"/>
<mask id="mask0_1208_2467" style="mask-type:luminance" maskUnits="userSpaceOnUse" x="0" y="183" width="300" height="89">
<path d="M298.752 269.53C305.987 255.211 285.308 183.615 141.923 183.615C38.4274 183.615 -9.07413 242.217 1.42751 271.916" fill="white"/>
</mask>
<g mask="url(#mask0_1208_2467)">
<ellipse opacity="0.671968" cx="119.807" cy="223.765" rx="7.88551" ry="4.38001" fill="url(#paint1_linear_1208_2467)"/>
<ellipse opacity="0.729957" cx="200.293" cy="217.079" rx="12.4416" ry="6.83282" fill="url(#paint2_linear_1208_2467)"/>
<ellipse opacity="0.729957" cx="58.7033" cy="198.857" rx="12.4416" ry="6.83282" fill="url(#paint3_linear_1208_2467)"/>
</g>
<g opacity="0.320685">
<ellipse cx="232.689" cy="64.1958" rx="8.41121" ry="8.40963" fill="url(#paint4_linear_1208_2467)"/>
<path d="M227.413 57.5271C223.803 57.0182 221.164 57.4171 220.668 58.7779C219.874 60.9602 224.892 64.7896 231.876 67.3312C238.861 69.8728 245.167 70.1642 245.961 67.982C246.461 66.6089 244.17 64.6878 241.026 62.7416" stroke="url(#paint5_linear_1208_2467)" stroke-width="4.20561"/>
<path d="M241.118 64.1958C241.118 59.5513 237.352 55.7861 232.706 55.7861C228.061 55.7861 225.151 58.7556 224.551 62.1039C224.551 62.1039 229.386 65.1308 231.619 65.7814C232.331 65.9889 233.037 66.2581 233.755 66.4967C234.559 66.7636 235.378 66.999 236.206 67.2033C236.773 67.343 237.551 67.5591 238.276 67.694C239.233 67.8719 240.09 67.9513 240.157 67.9513C240.276 67.9513 240.406 67.4226 240.674 66.8064C240.941 66.1902 241.118 64.1958 241.118 64.1958Z" fill="url(#paint6_linear_1208_2467)"/>
</g>
<circle opacity="0.418364" cx="47.8839" cy="113.808" r="9.80769" fill="url(#paint7_linear_1208_2467)"/>
<ellipse opacity="0.5" cx="154.038" cy="197.462" rx="29.4231" ry="8.07692" fill="url(#paint8_linear_1208_2467)"/>
<path d="M142.76 31.1406L146.013 32.3245L85.8302 197.674C85.5032 198.573 84.51 199.036 83.6118 198.709V198.709C82.7136 198.382 82.2504 197.389 82.5774 196.49L142.76 31.1406Z" fill="#D8D8D8"/>
<path d="M142.678 31.2207L168.22 48.0498C170.32 49.4332 172.666 50.4015 175.13 50.9022V50.9022C188.465 53.6118 197.159 66.5207 194.657 79.8968L188.624 112.155C188.596 112.305 188.384 112.309 188.347 112.162V112.162C185.548 100.871 174.895 93.2702 163.314 94.3633V94.3633C158.038 94.8612 152.801 93.0807 148.921 89.4702L128.421 70.3911L142.678 31.2207Z" fill="#5F5FF9"/>
<circle cx="144.108" cy="30.6648" r="2.30769" transform="rotate(20 144.108 30.6648)" fill="#D8D8D8"/>
<path d="M105.463 130.034C105.463 130.034 107.194 129.168 107.194 129.457C107.194 129.745 107.194 132.918 107.194 132.918L106.04 133.495L105.463 130.034Z" fill="#FFE9E9"/>
<path d="M138.242 187.813C138.242 187.813 137.66 185.692 136.129 185.554C134.598 185.416 130.284 189.979 129.383 191.863C128.481 193.747 130.944 196.388 133.756 193.85C136.567 191.312 138.242 187.813 138.242 187.813Z" fill="#677285"/>
<path d="M140.045 194.004L138.286 189.097C137.578 187.121 134.886 186.87 133.824 188.68V188.68C133.612 189.042 133.495 189.447 133.501 189.866C133.53 191.851 133.854 197.853 136.667 198.663C140.045 199.635 140.045 194.004 140.045 194.004Z" fill="url(#paint9_linear_1208_2467)"/>
<path d="M161.746 187.813C161.746 187.813 162.328 185.692 163.859 185.554C165.391 185.416 169.704 189.979 170.606 191.863C171.507 193.747 169.044 196.388 166.233 193.85C163.421 191.312 161.746 187.813 161.746 187.813Z" fill="#677285"/>
<path d="M159.946 194.004L161.704 189.097C162.412 187.121 165.105 186.87 166.166 188.68V188.68C166.378 189.042 166.496 189.447 166.489 189.866C166.46 191.851 166.136 197.853 163.323 198.663C159.946 199.635 159.946 194.004 159.946 194.004Z" fill="url(#paint10_linear_1208_2467)"/>
<path d="M140.54 179.269C140.54 179.269 139.575 181.164 139.575 182.496C138.61 184.657 137.021 187.565 134.268 193.631C132.464 197.605 135.717 198.659 138.174 198.914C139.709 199.073 141.179 198.436 142.372 197.458L149.735 191.424L158.497 198.659C160.086 199.971 162.386 199.962 163.965 198.637V198.637C165.589 197.275 166.013 194.902 165.077 193C164.026 190.863 162.464 187.514 160.323 182.496C160.323 181.177 159.481 179.913 159.481 179.913L140.54 179.269Z" fill="url(#paint11_linear_1208_2467)"/>
<path d="M161.539 164.269C163.113 166.568 162.693 172.316 162.693 172.316H158.077L159.921 184.71C160.011 185.313 159.675 185.896 159.102 186.105C157.039 186.86 152.153 188.537 149.008 188.723C145.855 188.91 140.502 187.276 138.245 186.529C137.635 186.327 137.29 185.708 137.46 185.088C137.952 183.296 139.252 179.203 142.362 172.316C143.325 173.443 137.885 172.316 137.885 172.316C137.885 172.316 138.225 167.198 139.616 164.269C141.007 161.341 144.231 159.385 144.231 159.385L152.384 158.146C152.384 158.146 155.77 158.808 157.5 159.73C159.231 160.652 159.965 161.97 161.539 164.269Z" fill="url(#paint12_linear_1208_2467)"/>
<path d="M162.255 172.294L162.072 177.762L161.452 180.498L157.192 198.073L157.871 199.539L158.31 201.443L157.871 202.655L156.717 202.224L154.41 200.347L153.994 199.101C153.891 198.792 153.924 198.454 154.084 198.171L155.215 196.16L158.31 179.752L157.999 172.501L162.255 172.294Z" fill="#FDE7E6"/>
<path d="M138.001 172.5L138.499 177.761L139.118 180.497L143.379 198.073L142.699 199.539L142.26 201.443L142.699 202.654L143.853 202.224L146.161 200.347L146.576 199.101C146.679 198.792 146.647 198.454 146.487 198.17L145.356 196.16L142.26 179.751L142.501 172.5L138.001 172.5Z" fill="#FDE7E6"/>
<path fill-rule="evenodd" clip-rule="evenodd" d="M151.89 153.672H147.346V159.762H151.89V153.672ZM149.163 163.248C149.163 162.384 147.346 159.763 147.346 159.763H151.89C151.89 159.763 149.163 164.113 149.163 163.248Z" fill="#FECECD"/>
<ellipse cx="149.355" cy="152.664" rx="4.02909" ry="6" fill="#FFE9E9"/>
<path fill-rule="evenodd" clip-rule="evenodd" d="M144.933 153.664C145.255 152.52 145.255 149.998 145.9 149.916C146.544 149.834 147.834 150.311 149.123 149.385C149.768 148.876 150.09 148.813 150.09 148.557C153.313 149.166 151.386 151.002 152.991 153.026C153.158 153.237 153.636 153.026 153.636 153.026C153.636 153.026 153.636 148.044 153.313 147.6C152.991 147.155 151.702 145.365 151.057 146.642C151.057 146.004 149.768 145.345 148.478 145.834C147.189 146.323 145.255 147.28 144.933 148.557C144.61 149.834 144.288 152.387 144.933 153.664Z" fill="#513450"/>
<defs>
<radialGradient id="paint0_radial_1208_2467" cx="0" cy="0" r="1" gradientUnits="userSpaceOnUse" gradientTransform="translate(130.111 214.238) rotate(-90) scale(51.3403 536.198)">
<stop stop-color="#EBEDF0" stop-opacity="0.24"/>
<stop offset="0.536775" stop-color="#EBEDF0" stop-opacity="0.845525"/>
<stop offset="1" stop-color="#E0E4E7" stop-opacity="0.01"/>
</radialGradient>
<linearGradient id="paint1_linear_1208_2467" x1="113.46" y1="222.604" x2="115.863" y2="227.741" gradientUnits="userSpaceOnUse">
<stop stop-color="#E1E7EA"/>
<stop offset="1" stop-color="#D0D6DC"/>
</linearGradient>
<linearGradient id="paint2_linear_1208_2467" x1="189.846" y1="216.44" x2="194.242" y2="225.609" gradientUnits="userSpaceOnUse">
<stop stop-color="#E1E7EA"/>
<stop offset="1" stop-color="#D0D6DC"/>
</linearGradient>
<linearGradient id="paint3_linear_1208_2467" x1="50.7703" y1="198.968" x2="53.2577" y2="208.877" gradientUnits="userSpaceOnUse">
<stop stop-color="#FBFBFB"/>
<stop offset="1" stop-color="#D9DFE3"/>
</linearGradient>
<linearGradient id="paint4_linear_1208_2467" x1="221.198" y1="58.4049" x2="225.404" y2="72.945" gradientUnits="userSpaceOnUse">
<stop stop-color="#ECECEC"/>
<stop offset="0.717538" stop-color="#E1E7EA"/>
<stop offset="1" stop-color="#BCC3CA"/>
</linearGradient>
<linearGradient id="paint5_linear_1208_2467" x1="227.077" y1="64.3782" x2="244.91" y2="70.8691" gradientUnits="userSpaceOnUse">
<stop stop-color="#BAC6D2"/>
<stop offset="1" stop-color="#7F8F9F"/>
</linearGradient>
<linearGradient id="paint6_linear_1208_2467" x1="229.596" y1="63.472" x2="232.346" y2="69.0284" gradientUnits="userSpaceOnUse">
<stop stop-color="#E1E7EA"/>
<stop offset="1" stop-color="#D0D6DC"/>
</linearGradient>
<linearGradient id="paint7_linear_1208_2467" x1="60.7777" y1="116.719" x2="50.9843" y2="100.179" gradientUnits="userSpaceOnUse">
<stop stop-color="#DAE2E6"/>
<stop offset="0.58" stop-color="#E3EBEF"/>
<stop offset="1" stop-color="#EDF6F9"/>
</linearGradient>
<linearGradient id="paint8_linear_1208_2467" x1="131.953" y1="198.419" x2="148.479" y2="224.128" gradientUnits="userSpaceOnUse">
<stop stop-color="#C4CDD1"/>
<stop offset="1" stop-color="#C6CFD3" stop-opacity="0.01"/>
</linearGradient>
<linearGradient id="paint9_linear_1208_2467" x1="140.045" y1="198.806" x2="140.045" y2="185.997" gradientUnits="userSpaceOnUse">
<stop stop-color="#7A87AF"/>
<stop offset="1" stop-color="#444F77"/>
</linearGradient>
<linearGradient id="paint10_linear_1208_2467" x1="159.946" y1="198.806" x2="159.946" y2="185.997" gradientUnits="userSpaceOnUse">
<stop stop-color="#7A87AF"/>
<stop offset="1" stop-color="#444F77"/>
</linearGradient>
<linearGradient id="paint11_linear_1208_2467" x1="165.62" y1="199.607" x2="165.62" y2="179.269" gradientUnits="userSpaceOnUse">
<stop stop-color="#7A87AF"/>
<stop offset="1" stop-color="#444F77"/>
</linearGradient>
<linearGradient id="paint12_linear_1208_2467" x1="175.613" y1="172.116" x2="149.393" y2="200.22" gradientUnits="userSpaceOnUse">
<stop stop-color="#E5E9F0"/>
<stop offset="1" stop-color="#D2DAE8"/>
</linearGradient>
</defs>
</svg>
