<svg width="24" height="24" viewBox="0 0 24 24" fill="none" xmlns="http://www.w3.org/2000/svg">
<path fill-rule="evenodd" clip-rule="evenodd" d="M14.8775 6.37867C14.635 6.13621 14.3061 6 13.9631 6C13.6202 6 13.2913 6.13621 13.0487 6.37867L6.37895 13.0484C6.13638 13.2909 6.00007 13.6198 6 13.9628V17.3469C6 17.7071 6.29294 18 6.65314 18H10.0378C10.3808 17.9999 10.7097 17.8636 10.9522 17.6211L17.6213 10.9506C17.8638 10.7081 18 10.3792 18 10.0362C18 9.6933 17.8638 9.36439 17.6213 9.12185L14.8775 6.37867ZM13.9631 7.29307L16.7069 10.0369L15.5908 11.153L12.847 8.40922L13.9631 7.29307ZM11.9326 9.32361L7.29334 13.9628V16.706H10.0378L14.677 12.0668L11.9332 9.32297L11.9326 9.32361Z" fill="#363636"/>
</svg>
